<?xml version="1.0" encoding="UTF-8"?>
<svg version="1.1" xmlns="http://www.w3.org/2000/svg" width="609" height="323">
<path d="M0 0 C200.97 0 401.94 0 609 0 C609 106.59 609 213.18 609 323 C408.03 323 207.06 323 0 323 C0 216.41 0 109.82 0 0 Z " fill="#333333" transform="translate(0,0)"/>
<path d="M0 0 C2.19848542 0.00822108 4.39697179 0.01619382 6.59545898 0.02392578 C18.54494999 0.07899027 30.49303053 0.20201734 42.4375 0.5625 C43.55141113 0.5931958 44.66532227 0.6238916 45.81298828 0.65551758 C54.33035227 0.97980315 62.67238686 1.42013521 69.375 7.1875 C76.64334458 18.26230481 75.70923241 32.6647935 75.63574219 45.52416992 C75.62498689 47.75271677 75.63573797 49.98046103 75.6484375 52.20898438 C75.67836973 81.61942183 75.67836973 81.61942183 67.88671875 89.73828125 C48.85942493 106.4992969 -12.02479131 96.90030212 -36.125 95.5625 C-37.20813477 95.51770508 -38.29126953 95.47291016 -39.40722656 95.42675781 C-46.28453433 94.93184247 -50.73274711 93.12972019 -55.625 88.1875 C-63.53912777 78.48726979 -61.9539946 60.7936905 -61.88574219 48.85083008 C-61.87498689 46.62228323 -61.88573797 44.39453897 -61.8984375 42.16601562 C-61.92590205 16.39913389 -61.92590205 16.39913389 -56.33203125 7.80078125 C-50.58116532 2.36575235 -44.83807266 1.44121581 -37.2265625 0.94921875 C-35.7210936 0.83630745 -35.7210936 0.83630745 -34.18521118 0.72111511 C-22.79514691 -0.05922058 -11.41094087 -0.07572541 0 0 Z " fill="#A30201" transform="translate(300.625,85.8125)"/>
<path d="M0 0 C0.495 2.97 0.495 2.97 1 6 C-6.06502582 7.42819408 -13.13094518 8.85190026 -20.19750977 10.27246094 C-22.60234147 10.75644814 -25.00696522 11.2414698 -27.41137695 11.72753906 C-30.86355562 12.42523654 -34.31646027 13.11923416 -37.76953125 13.8125 C-39.38683891 14.14060669 -39.38683891 14.14060669 -41.03681946 14.4753418 C-42.53803596 14.77565308 -42.53803596 14.77565308 -44.06958008 15.08203125 C-44.95116287 15.25968018 -45.83274567 15.4373291 -46.74104309 15.62036133 C-49 16 -49 16 -52 16 C-52.33 14.02 -52.66 12.04 -53 10 C-47.80865128 8.89393681 -42.61657218 7.79138835 -37.42382812 6.69189453 C-35.66256249 6.31847791 -33.90148942 5.94415166 -32.140625 5.56884766 C-6.00416667 0 -6.00416667 0 0 0 Z " fill="#F9F0F0" transform="translate(335,144)"/>
<path d="M0 0 C2.375 1.0625 2.375 1.0625 4 3 C4.5625 6.4375 4.5625 6.4375 4 10 C1.875 12.5 1.875 12.5 -1 14 C-4.56090901 14 -6.25697245 13.69349238 -8.875 11.25 C-10.24863504 8.50272993 -10.53062116 7.03212094 -10 4 C-7.15185518 -0.05312917 -4.84199177 -0.7061238 0 0 Z " fill="#FBF3F2" transform="translate(294,111)"/>
<path d="M0 0 C4.91511194 1.34048507 4.91511194 1.34048507 6.4375 3.9375 C6.9375 6.875 6.9375 6.875 6.4375 9.9375 C4.0230817 12.55886844 2.35988403 13.73502546 -1.125 14.5 C-3.5625 13.9375 -3.5625 13.9375 -5.875 11.75 C-7.71206543 8.68822428 -8.276437 7.4179429 -7.5625 3.9375 C-5.24143877 0.40948693 -4.27159402 -0.07494025 0 0 Z " fill="#FCF7F7" transform="translate(325.5625,111.0625)"/>
<path d="M0 0 C0.99 0.33 1.98 0.66 3 1 C2.01 1.99 1.02 2.98 0 4 C1.32 4 2.64 4 4 4 C4 3.34 4 2.68 4 2 C7.12296038 0.14935681 9.37940768 -0.29356154 13 0 C14 1 14 1 14.125 4.5 C14 8 14 8 13 9 C11.33391013 9.04384447 9.66619446 9.0396713 8 9 C6.14536523 9 4.28993212 9.03463746 2.4375 9.125 C0 9 0 9 -2 7 C-2.25 4.5 -2.25 4.5 -2 2 C-1.34 1.34 -0.68 0.68 0 0 Z " fill="#889495" transform="translate(277,224)"/>
<path d="M0 0 C2.97 0 5.94 0 9 0 C9 0.99 9 1.98 9 3 C8.01 2.34 7.02 1.68 6 1 C6.66 1.5775 7.32 2.155 8 2.75 C10 5 10 5 10 9 C8.906875 8.814375 7.81375 8.62875 6.6875 8.4375 C3.06375867 7.7421932 3.06375867 7.7421932 0 9 C0 6.03 0 3.06 0 0 Z " fill="#666C6F" transform="translate(297,224)"/>
<path d="M0 0 C0.66 0 1.32 0 2 0 C2 0.99 2 1.98 2 3 C2.804375 3.144375 3.60875 3.28875 4.4375 3.4375 C7 4 7 4 8 5 C8.1875 7.4375 8.1875 7.4375 8 10 C7.34 10.66 6.68 11.32 6 12 C4.02 12 2.04 12 0 12 C0 8.04 0 4.08 0 0 Z " fill="#919894" transform="translate(372,221)"/>
<path d="M0 0 C0.33 0 0.66 0 1 0 C1 3.96 1 7.92 1 12 C-0.98 12 -2.96 12 -5 12 C-6.36623674 9.26752652 -6.128426 7.01801098 -6 4 C-5 3 -5 3 -2.4375 2.9375 C-1.2309375 2.9684375 -1.2309375 2.9684375 0 3 C0 2.01 0 1.02 0 0 Z " fill="#949A99" transform="translate(272,221)"/>
<path d="M0 0 C1.66611905 -0.042721 3.33382885 -0.04063832 5 0 C6 1 6 1 6.09765625 2.84765625 C6.06510417 4.8984375 6.03255208 6.94921875 6 9 C4.02 9 2.04 9 0 9 C-0.33 7.68 -0.66 6.36 -1 5 C0.65 4.67 2.3 4.34 4 4 C4 3.34 4 2.68 4 2 C2.35 2.33 0.7 2.66 -1 3 C-0.67 2.01 -0.34 1.02 0 0 Z " fill="#8E8D86" transform="translate(348,224)"/>
<path d="M0 0 C1.2065625 0.0309375 1.2065625 0.0309375 2.4375 0.0625 C2.7675 1.7125 3.0975 3.3625 3.4375 5.0625 C1.7875 5.0625 0.1375 5.0625 -1.5625 5.0625 C-1.5625 5.7225 -1.5625 6.3825 -1.5625 7.0625 C0.0875 7.0625 1.7375 7.0625 3.4375 7.0625 C3.1075 7.7225 2.7775 8.3825 2.4375 9.0625 C0.77138095 9.105221 -0.89632885 9.10313832 -2.5625 9.0625 C-3.5625 8.0625 -3.5625 8.0625 -3.6875 4.5625 C-3.52762642 0.08603967 -3.52762642 0.08603967 0 0 Z " fill="#979B98" transform="translate(388.5625,223.9375)"/>
<path d="M0 0 C2.97 0.495 2.97 0.495 6 1 C6 3.64 6 6.28 6 9 C3.69 9 1.38 9 -1 9 C-0.67 7.35 -0.34 5.7 0 4 C1.32 4 2.64 4 4 4 C3.01 3.01 2.02 2.02 1 1 C1 1.66 1 2.32 1 3 C0.34 3 -0.32 3 -1 3 C-0.67 2.01 -0.34 1.02 0 0 Z " fill="#9FA5A2" transform="translate(332,224)"/>
<path d="M0 0 C1.65 0.33 3.3 0.66 5 1 C5 3.64 5 6.28 5 9 C3.02 9 1.04 9 -1 9 C-1.33 7.68 -1.66 6.36 -2 5 C-0.35 4.67 1.3 4.34 3 4 C3 3.01 3 2.02 3 1 C1.02 1.99 1.02 1.99 -1 3 C-0.67 2.01 -0.34 1.02 0 0 Z " fill="#8A9190" transform="translate(365,224)"/>
<path d="M0 0 C0.66 0 1.32 0 2 0 C2 0.99 2 1.98 2 3 C3.65 3.33 5.3 3.66 7 4 C7 6.64 7 9.28 7 12 C6.34 12 5.68 12 5 12 C4.67 9.69 4.34 7.38 4 5 C3.67 5 3.34 5 3 5 C2.67 7.31 2.34 9.62 2 12 C1.34 12 0.68 12 0 12 C0 8.04 0 4.08 0 0 Z " fill="#9D9881" transform="translate(230,221)"/>
<path d="M0 0 C1.99954746 -0.04254356 4.00041636 -0.04080783 6 0 C7 1 7 1 7.09765625 2.84765625 C7.06510417 4.8984375 7.03255208 6.94921875 7 9 C6.34 9 5.68 9 5 9 C5 6.69 5 4.38 5 2 C4.01 2 3.02 2 2 2 C2 4.31 2 6.62 2 9 C1.34 9 0.68 9 0 9 C0 6.03 0 3.06 0 0 Z " fill="#9A9A91" transform="translate(322,224)"/>
<path d="M0 0 C1.65 0 3.3 0 5 0 C5.33 0.99 5.66 1.98 6 3 C5.34 3 4.68 3 4 3 C4 2.34 4 1.68 4 1 C3.34 1.66 2.68 2.32 2 3 C3.32 3.66 4.64 4.32 6 5 C5.67 6.32 5.34 7.64 5 9 C3.35 9 1.7 9 0 9 C-0.33 8.01 -0.66 7.02 -1 6 C0.32 6 1.64 6 3 6 C1.68 5.34 0.36 4.68 -1 4 C-0.67 2.68 -0.34 1.36 0 0 Z " fill="#8D9595" transform="translate(243,224)"/>
<path d="M0 0 C0.66 0 1.32 0 2 0 C2 2.31 2 4.62 2 7 C2.99 7 3.98 7 5 7 C5 4.69 5 2.38 5 0 C5.66 0 6.32 0 7 0 C7 2.97 7 5.94 7 9 C5.00045254 9.04254356 2.99958364 9.04080783 1 9 C0 8 0 8 -0.09765625 6.15234375 C-0.06510417 4.1015625 -0.03255208 2.05078125 0 0 Z " fill="#999991" transform="translate(313,224)"/>
<path d="M0 0 C0.66 0 1.32 0 2 0 C2.66 0.99 3.32 1.98 4 3 C4.33 2.01 4.66 1.02 5 0 C5.66 0 6.32 0 7 0 C6.34 2.97 5.68 5.94 5 9 C4.34 9 3.68 9 3 9 C0.87491756 5.81237635 0.4979837 3.73487777 0 0 Z " fill="#8F968F" transform="translate(254,224)"/>
<path d="M0 0 C1.65 0.33 3.3 0.66 5 1 C4.67 1.66 4.34 2.32 4 3 C3.01 2.34 2.02 1.68 1 1 C1.66 1.5775 2.32 2.155 3 2.75 C5 5 5 5 5 9 C3.35 9 1.7 9 0 9 C0 8.01 0 7.02 0 6 C0.99 6 1.98 6 3 6 C1.68 5.34 0.36 4.68 -1 4 C-0.67 2.68 -0.34 1.36 0 0 Z " fill="#9EA199" transform="translate(302,224)"/>
<path d="M0 0 C0.66 0 1.32 0 2 0 C2.33 0.99 2.66 1.98 3 3 C3.66 2.01 4.32 1.02 5 0 C5.66 0.33 6.32 0.66 7 1 C6.01 3.64 5.02 6.28 4 9 C3.34 9 2.68 9 2 9 C1.34 6.03 0.68 3.06 0 0 Z " fill="#929790" transform="translate(339,224)"/>
<path d="M0 0 C0.99 0.33 1.98 0.66 3 1 C2.01 1.99 1.02 2.98 0 4 C1.32 4 2.64 4 4 4 C4.33 3.34 4.66 2.68 5 2 C5 2.99 5 3.98 5 5 C3.35 5 1.7 5 0 5 C0.95865509 7.33075929 0.95865509 7.33075929 4 9 C-0.875 8.125 -0.875 8.125 -2 7 C-2.1875 4.5625 -2.1875 4.5625 -2 2 C-1.34 1.34 -0.68 0.68 0 0 Z " fill="#9CA3A4" transform="translate(277,224)"/>
<path d="M0 0 C0.33 0 0.66 0 1 0 C1 2.64 1 5.28 1 8 C-1.31 8 -3.62 8 -6 8 C-5.34 6.68 -4.68 5.36 -4 4 C-3.01 4 -2.02 4 -1 4 C-0.67 4.99 -0.34 5.98 0 7 C0 4.69 0 2.38 0 0 Z " fill="#7D7260" transform="translate(337,225)"/>
<path d="M0 0 C1.65 0 3.3 0 5 0 C5 1.32 5 2.64 5 4 C3.35 4 1.7 4 0 4 C0 2.68 0 1.36 0 0 Z " fill="#797772" transform="translate(386,224)"/>
<path d="M0 0 C0.33 0 0.66 0 1 0 C1 1.98 1 3.96 1 6 C0.01 6.495 0.01 6.495 -1 7 C-3.125 6.0625 -3.125 6.0625 -5 5 C-5 4.34 -5 3.68 -5 3 C-3.35 3 -1.7 3 0 3 C0 2.01 0 1.02 0 0 Z " fill="#685F51" transform="translate(282,226)"/>
<path d="M0 0 C0.66 0.33 1.32 0.66 2 1 C2 2.65 2 4.3 2 6 C1.01 6.495 1.01 6.495 0 7 C-0.66 6.67 -1.32 6.34 -2 6 C-1.125 1.125 -1.125 1.125 0 0 Z " fill="#463D39" transform="translate(287,225)"/>
<path d="M0 0 C1.32 0 2.64 0 4 0 C4 1.65 4 3.3 4 5 C2.68 5 1.36 5 0 5 C0 3.35 0 1.7 0 0 Z " fill="#413945" transform="translate(374,226)"/>
<path d="M0 0 C1.32 0 2.64 0 4 0 C4 1.65 4 3.3 4 5 C2.68 5 1.36 5 0 5 C0 3.35 0 1.7 0 0 Z " fill="#3A4249" transform="translate(268,226)"/>
<path d="M0 0 C1.4540625 0.0309375 1.4540625 0.0309375 2.9375 0.0625 C2.9375 0.7225 2.9375 1.3825 2.9375 2.0625 C2.009375 2.2171875 2.009375 2.2171875 1.0625 2.375 C-1.42776484 2.93775373 -1.42776484 2.93775373 -3.0625 6.0625 C-3.44468767 4.40635343 -3.77645102 2.73792976 -4.0625 1.0625 C-3.0625 0.0625 -3.0625 0.0625 0 0 Z " fill="#333950" transform="translate(349.0625,225.9375)"/>
</svg>
